<svg xmlns="http://www.w3.org/2000/svg" viewBox="0 0 96 96" width="96" height="96" role="img" aria-label="Saga — caravela na vaga (variante inclinada)">
  <defs>
    <symbol id="cx" viewBox="-50 -50 100 100">
      <path d="M -10 -15 L -30 -50 L 30 -50 L 10 -15 L 15 -10 L 50 -30 L 50 30 L 15 10 L 10 15 L 30 50 L -30 50 L -10 15 L -15 10 L -50 30 L -50 -30 L -15 -10 Z" fill="#2f6ea5"/>
      <path transform="scale(0.46)" d="M -10 -15 L -30 -50 L 30 -50 L 10 -15 L 15 -10 L 50 -30 L 50 30 L 15 10 L 10 15 L 30 50 L -30 50 L -10 15 L -15 10 L -50 30 L -50 -30 L -15 -10 Z" fill="#f4f1e9"/>
    </symbol>
    <clipPath id="tileclip"><rect x="5" y="5" width="86" height="86" rx="20"/></clipPath>
  </defs>

  <!-- tile (upright) -->
  <rect x="5" y="5" width="86" height="86" rx="20" fill="#f4f1e9" stroke="#1c3f73" stroke-width="4"/>

  <g clip-path="url(#tileclip)">
    <!-- ship riding the swell, heeled ~26° (bow up-left), nudged right to centre -->
    <g transform="translate(13 0) rotate(-26 40 56)" stroke="#1c3f73" stroke-linejoin="round">
      <!-- rigging -->
      <g stroke-width="1.4" opacity="0.8">
        <line x1="40" y1="18" x2="22" y2="52"/>
        <line x1="40" y1="18" x2="58" y2="52"/>
      </g>
      <line x1="40" y1="16" x2="40" y2="56" stroke="#1c3f73" stroke-width="3"/>
      <path d="M40 17 L55 22 L40 27 Z" fill="#d98e3c" stroke="#c8782a" stroke-width="1"/>
      <path d="M22 27 Q40 34 58 27 L61 49 Q40 56 19 49 Z" fill="#f4f1e9" stroke-width="3"/>
      <use href="#cx" x="31" y="33" width="16" height="16"/>
      <path d="M22 52 Q40 62 58 52 Q55 65 40 65 Q25 65 22 52 Z" fill="#2f6ea5" stroke-width="3"/>
      <path d="M22 52 Q40 62 58 52 L57 56 Q40 66 23 56 Z" fill="#6fa8d6" stroke="none"/>
    </g>

    <!-- the swell (over the hull base) -->
    <path d="M5 62 C 16 46 34 46 46 56 C 58 66 74 70 91 60 L91 91 L5 91 Z" fill="#2f6ea5"/>
    <path d="M5 74 C 20 64 32 64 44 70 C 58 77 74 78 91 72 L91 91 L5 91 Z" fill="#1c3f73"/>
    <!-- foam crest -->
    <path d="M5 62 C 16 46 34 46 46 56 C 58 66 74 70 91 60" fill="none" stroke="#dbeaf4" stroke-width="3" stroke-linecap="round"/>
  </g>

  <!-- tile keyline above clip -->
  <rect x="5" y="5" width="86" height="86" rx="20" fill="none" stroke="#1c3f73" stroke-width="4"/>
</svg>
