<svg xmlns="http://www.w3.org/2000/svg" viewBox="0 0 64 64" width="64" height="64">
  <rect width="64" height="64" rx="14" fill="#0f1115"/>
  <!-- mastro -->
  <rect x="31" y="10" width="2" height="34" fill="#e7e9ee"/>
  <!-- velas (caravela) -->
  <path d="M33 13 C 44 16, 46 26, 42 34 L33 34 Z" fill="#6ea8fe"/>
  <path d="M31 13 C 20 16, 18 26, 22 34 L31 34 Z" fill="#34d399"/>
  <!-- vela de proa -->
  <path d="M33 17 C 40 19, 41 27, 38 32 L33 32 Z" fill="#f0a35e" opacity="0.9"/>
  <!-- casco -->
  <path d="M12 40 H52 L46 52 Q44 54 40 54 H24 Q20 54 18 52 Z" fill="#e7e9ee"/>
  <!-- linha de água -->
  <path d="M8 50 q6 4 12 0 t12 0 t12 0 t12 0" fill="none" stroke="#2a3550" stroke-width="2" stroke-linecap="round"/>
</svg>
